<svg width="70" height="80" viewBox="0 0 70 80" fill="none" xmlns="http://www.w3.org/2000/svg">
<rect width="70" height="80" fill="#31A9DD"/>
<path d="M47.7373 29.4609L42.9561 51.8203C42.5811 53.4141 41.7139 53.8359 40.3545 53.0859L33.1123 47.7422L29.5967 51.1172C29.1279 51.5859 28.6357 51.8203 28.1201 51.8203L28.6826 44.4375L42.1123 32.3438C42.4404 32.0156 42.4404 31.8281 42.1123 31.7812C41.8311 31.6875 41.5264 31.7578 41.1982 31.9922L24.6045 42.4688L17.4326 40.2188C16.6357 39.9844 16.2607 39.6328 16.3076 39.1641C16.3545 38.6953 16.8467 38.2969 17.7842 37.9688L45.6982 27.1406C46.4014 26.9062 46.9639 27 47.3857 27.4219C47.8076 27.7969 47.9248 28.4766 47.7373 29.4609Z" fill="white"/>
</svg>
